#N canvas 584 150 838 575 10;
#X obj 81 20 osc~ 400;
#X obj 81 211 dac~;
#X obj 206 65 r float2pd;
#X obj 206 135 stdout;
#X obj 81 181 *~ 0.005;
#X connect 0 0 4 0;
#X connect 2 0 3 0;
#X connect 2 0 4 1;
#X connect 4 0 1 0;
#X connect 4 0 1 1;
